<svg width="281" height="68" viewBox="0 0 281 68" fill="none" xmlns="http://www.w3.org/2000/svg">
<path d="M21.824 33.8044V40.931C21.8239 40.9702 21.8136 41.0087 21.7941 41.0427C21.7746 41.0767 21.7465 41.105 21.7127 41.1248C21.6789 41.1446 21.6405 41.1553 21.6013 41.1557C21.5621 41.1561 21.5235 41.1463 21.4893 41.1272L6.51488 32.7081C6.39895 32.6418 6.30264 32.546 6.23575 32.4305C6.16885 32.3149 6.13375 32.1837 6.13402 32.0502V25.9681C6.08481 25.1435 5.86986 24.3373 5.50202 23.5977C5.13419 22.8581 4.62102 22.2002 3.99318 21.6633C2.80446 20.7516 0.588589 19.4648 0.432786 19.3552C0.178885 19.1994 0 19.3552 0 19.5687V28.0282V48.2595C0.00103794 49.2714 0.268167 50.2653 0.77458 51.1414C1.28099 52.0175 2.00888 52.745 2.88524 53.2509L5.82819 54.9475C5.86256 54.968 5.9018 54.979 5.94184 54.9793C5.98189 54.9796 6.02129 54.9693 6.05598 54.9493C6.09068 54.9293 6.11941 54.9004 6.13922 54.8656C6.15902 54.8308 6.16918 54.7913 6.16864 54.7513V40.6598C6.1687 40.6206 6.179 40.5821 6.19851 40.5481C6.21802 40.5141 6.24607 40.4858 6.27989 40.466C6.3137 40.4461 6.3521 40.4355 6.39129 40.4351C6.43048 40.4347 6.4691 40.4445 6.50333 40.4636L21.4142 48.9116C21.5309 48.9775 21.628 49.0731 21.6959 49.1886C21.7638 49.3041 21.8 49.4354 21.8009 49.5694V60.4525C21.8001 61.5902 22.0989 62.708 22.6672 63.6936C23.2354 64.6792 24.0531 65.4978 25.0381 66.0672L27.9234 67.7291C27.961 67.7515 28.004 67.7636 28.0479 67.764C28.0917 67.7644 28.1349 67.7532 28.1731 67.7315C28.2112 67.7098 28.2429 67.6784 28.2649 67.6405C28.2869 67.6025 28.2985 67.5594 28.2984 67.5156V36.1069C28.2968 35.3261 28.4056 34.549 28.6216 33.7987L22.2394 30.7461C21.9574 31.7408 21.8175 32.7705 21.824 33.8044Z" fill="url(#paint0_linear_14789_69589)"/>
<path d="M21.824 33.8044V40.931C21.8239 40.9702 21.8136 41.0087 21.7941 41.0427C21.7746 41.0767 21.7465 41.105 21.7127 41.1248C21.6789 41.1446 21.6405 41.1553 21.6013 41.1557C21.5621 41.1561 21.5235 41.1463 21.4893 41.1272L6.51488 32.7081C6.39895 32.6418 6.30264 32.546 6.23575 32.4305C6.16885 32.3149 6.13375 32.1837 6.13402 32.0502V25.9681C6.08481 25.1435 5.86986 24.3373 5.50202 23.5977C5.13419 22.8581 4.62102 22.2002 3.99318 21.6633C2.80446 20.7516 0.588589 19.4648 0.432786 19.3552C0.178885 19.1994 0 19.3552 0 19.5687V28.0282V48.2595C0.00103794 49.2714 0.268167 50.2653 0.77458 51.1414C1.28099 52.0175 2.00888 52.745 2.88524 53.2509L5.82819 54.9475C5.86256 54.968 5.9018 54.979 5.94184 54.9793C5.98189 54.9796 6.02129 54.9693 6.05598 54.9493C6.09068 54.9293 6.11941 54.9004 6.13922 54.8656C6.15902 54.8308 6.16918 54.7913 6.16864 54.7513V40.6598C6.1687 40.6206 6.179 40.5821 6.19851 40.5481C6.21802 40.5141 6.24607 40.4858 6.27989 40.466C6.3137 40.4461 6.3521 40.4355 6.39129 40.4351C6.43048 40.4347 6.4691 40.4445 6.50333 40.4636L21.4142 48.9116C21.5309 48.9775 21.628 49.0731 21.6959 49.1886C21.7638 49.3041 21.8 49.4354 21.8009 49.5694V60.4525C21.8001 61.5902 22.0989 62.708 22.6672 63.6936C23.2354 64.6792 24.0531 65.4978 25.0381 66.0672L27.9234 67.7291C27.961 67.7515 28.004 67.7636 28.0479 67.764C28.0917 67.7644 28.1349 67.7532 28.1731 67.7315C28.2112 67.7098 28.2429 67.6784 28.2649 67.6405C28.2869 67.6025 28.2985 67.5594 28.2984 67.5156V36.1069C28.2968 35.3261 28.4056 34.549 28.6216 33.7987L22.2394 30.7461C21.9574 31.7408 21.8175 32.7705 21.824 33.8044Z" fill="url(#paint1_radial_14789_69589)"/>
<path d="M21.824 33.8044V40.931C21.8239 40.9702 21.8136 41.0087 21.7941 41.0427C21.7746 41.0767 21.7465 41.105 21.7127 41.1248C21.6789 41.1446 21.6405 41.1553 21.6013 41.1557C21.5621 41.1561 21.5235 41.1463 21.4893 41.1272L6.51488 32.7081C6.39895 32.6418 6.30264 32.546 6.23575 32.4305C6.16885 32.3149 6.13375 32.1837 6.13402 32.0502V25.9681C6.08481 25.1435 5.86986 24.3373 5.50202 23.5977C5.13419 22.8581 4.62102 22.2002 3.99318 21.6633C2.80446 20.7516 0.588589 19.4648 0.432786 19.3552C0.178885 19.1994 0 19.3552 0 19.5687V28.0282V48.2595C0.00103794 49.2714 0.268167 50.2653 0.77458 51.1414C1.28099 52.0175 2.00888 52.745 2.88524 53.2509L5.82819 54.9475C5.86256 54.968 5.9018 54.979 5.94184 54.9793C5.98189 54.9796 6.02129 54.9693 6.05598 54.9493C6.09068 54.9293 6.11941 54.9004 6.13922 54.8656C6.15902 54.8308 6.16918 54.7913 6.16864 54.7513V40.6598C6.1687 40.6206 6.179 40.5821 6.19851 40.5481C6.21802 40.5141 6.24607 40.4858 6.27989 40.466C6.3137 40.4461 6.3521 40.4355 6.39129 40.4351C6.43048 40.4347 6.4691 40.4445 6.50333 40.4636L21.4142 48.9116C21.5309 48.9775 21.628 49.0731 21.6959 49.1886C21.7638 49.3041 21.8 49.4354 21.8009 49.5694V60.4525C21.8001 61.5902 22.0989 62.708 22.6672 63.6936C23.2354 64.6792 24.0531 65.4978 25.0381 66.0672L27.9234 67.7291C27.961 67.7515 28.004 67.7636 28.0479 67.764C28.0917 67.7644 28.1349 67.7532 28.1731 67.7315C28.2112 67.7098 28.2429 67.6784 28.2649 67.6405C28.2869 67.6025 28.2985 67.5594 28.2984 67.5156V36.1069C28.2968 35.3261 28.4056 34.549 28.6216 33.7987L22.2394 30.7461C21.9574 31.7408 21.8175 32.7705 21.824 33.8044Z" fill="url(#paint2_linear_14789_69589)"/>
<path d="M58.3747 23.7067C58.3747 22.0795 56.2338 19.0903 51.6982 21.8544L34.9638 31.5488C33.9383 32.1081 33.0869 32.9395 32.5036 33.9515C31.9202 34.9635 31.6274 36.1169 31.6574 37.2847V66.4948C31.6563 66.5445 31.6686 66.5936 31.693 66.6369C31.7174 66.6802 31.7531 66.7161 31.7962 66.7409C31.8392 66.7657 31.8882 66.7784 31.9379 66.7778C31.9876 66.7771 32.0362 66.7631 32.0786 66.7372L35.8179 64.5848C36.5812 64.1421 37.2148 63.5066 37.6554 62.742C38.0959 61.9774 38.3279 61.1105 38.328 60.2281V52.7957L51.704 45.0402V54.902C51.7034 54.9501 51.7157 54.9976 51.7395 55.0395C51.7633 55.0814 51.7978 55.1161 51.8396 55.1402C51.8813 55.1643 51.9287 55.1769 51.9769 55.1766C52.0251 55.1763 52.0723 55.1632 52.1137 55.1385L55.9165 52.8823C56.6678 52.4371 57.2901 51.8039 57.7222 51.045C58.1542 50.2861 58.3811 49.4277 58.3805 48.5544L58.3747 23.7067ZM51.6982 37.3135L38.3223 45.0633V39.2293C38.3222 38.6539 38.4736 38.0886 38.7613 37.5902C39.0489 37.0918 39.4627 36.678 39.9611 36.3902L49.1246 31.0699C50.8557 30.1812 51.6982 31.2372 51.6982 32.5587V37.3135Z" fill="url(#paint3_linear_14789_69589)"/>
<path d="M4.4268 11.9811C3.88252 12.2935 3.4303 12.744 3.11582 13.287C2.80134 13.8301 2.63574 14.4465 2.63574 15.0741C2.63574 15.7017 2.80134 16.3181 3.11582 16.8612C3.4303 17.4042 3.88252 17.8547 4.4268 18.1671L12.5055 22.8354C13.5833 23.4523 14.8037 23.7769 16.0457 23.7769C17.2876 23.7769 18.508 23.4523 19.5859 22.8354L38.8304 12.16C39.1006 12.004 39.4071 11.9219 39.7191 11.9219C40.031 11.9219 40.3375 12.004 40.6077 12.16L44.5951 14.3124C44.6911 14.3603 44.7719 14.4339 44.8284 14.5252C44.8849 14.6164 44.9148 14.7216 44.9148 14.8289C44.9148 14.9362 44.8849 15.0413 44.8284 15.1325C44.7719 15.2238 44.6911 15.2975 44.5951 15.3453L42.46 16.5687C42.46 16.5687 33.0311 21.5082 27.7222 24.5319C25.2178 25.9572 23.0077 28.0865 22.223 30.7756L28.6051 33.8282C29.2625 31.686 30.7249 29.8823 32.6848 28.7963L48.1555 20.2849L51.6928 18.2248C52.2357 17.912 52.6867 17.4617 53.0002 16.9193C53.3138 16.3768 53.4788 15.7613 53.4788 15.1347C53.4788 14.5081 53.3138 13.8926 53.0002 13.3501C52.6867 12.8077 52.2357 12.3574 51.6928 12.0446L42.5985 6.93773C41.5183 6.3154 40.2935 5.98783 39.0468 5.98783C37.8001 5.98783 36.5753 6.3154 35.4951 6.93773L17.4912 16.7476C17.2198 16.9063 16.9111 16.9899 16.5967 16.9899C16.2824 16.9899 15.9737 16.9063 15.7023 16.7476L12.7594 14.9587C12.6649 14.9103 12.5855 14.8367 12.5301 14.7461C12.4747 14.6555 12.4454 14.5513 12.4454 14.4451C12.4454 14.3389 12.4747 14.2348 12.5301 14.1442C12.5855 14.0535 12.6649 13.98 12.7594 13.9316L15.3503 12.4428L30.1632 4.05826H30.192C31.5654 3.36487 33.0533 2.92689 34.5833 2.76567C34.6249 2.76167 34.6641 2.7449 34.6958 2.71768C34.7274 2.69045 34.7498 2.6541 34.7599 2.61362C34.77 2.57314 34.7674 2.53052 34.7523 2.49162C34.7372 2.45271 34.7104 2.41944 34.6757 2.39636L33.937 1.92319C30.1458 -0.511953 26.1469 -0.644681 22.2345 1.58272L7.02352 10.4693L4.4268 11.9811Z" fill="url(#paint4_linear_14789_69589)"/>
<path d="M4.4268 11.9811C3.88252 12.2935 3.4303 12.744 3.11582 13.287C2.80134 13.8301 2.63574 14.4465 2.63574 15.0741C2.63574 15.7017 2.80134 16.3181 3.11582 16.8612C3.4303 17.4042 3.88252 17.8547 4.4268 18.1671L12.5055 22.8354C13.5833 23.4523 14.8037 23.7769 16.0457 23.7769C17.2876 23.7769 18.508 23.4523 19.5859 22.8354L38.8304 12.16C39.1006 12.004 39.4071 11.9219 39.7191 11.9219C40.031 11.9219 40.3375 12.004 40.6077 12.16L44.5951 14.3124C44.6911 14.3603 44.7719 14.4339 44.8284 14.5252C44.8849 14.6164 44.9148 14.7216 44.9148 14.8289C44.9148 14.9362 44.8849 15.0413 44.8284 15.1325C44.7719 15.2238 44.6911 15.2975 44.5951 15.3453L42.46 16.5687C42.46 16.5687 33.0311 21.5082 27.7222 24.5319C25.2178 25.9572 23.0077 28.0865 22.223 30.7756L28.6051 33.8282C29.2625 31.686 30.7249 29.8823 32.6848 28.7963L48.1555 20.2849L51.6928 18.2248C52.2357 17.912 52.6867 17.4617 53.0002 16.9193C53.3138 16.3768 53.4788 15.7613 53.4788 15.1347C53.4788 14.5081 53.3138 13.8926 53.0002 13.3501C52.6867 12.8077 52.2357 12.3574 51.6928 12.0446L42.5985 6.93773C41.5183 6.3154 40.2935 5.98783 39.0468 5.98783C37.8001 5.98783 36.5753 6.3154 35.4951 6.93773L17.4912 16.7476C17.2198 16.9063 16.9111 16.9899 16.5967 16.9899C16.2824 16.9899 15.9737 16.9063 15.7023 16.7476L12.7594 14.9587C12.6649 14.9103 12.5855 14.8367 12.5301 14.7461C12.4747 14.6555 12.4454 14.5513 12.4454 14.4451C12.4454 14.3389 12.4747 14.2348 12.5301 14.1442C12.5855 14.0535 12.6649 13.98 12.7594 13.9316L15.3503 12.4428L30.1632 4.05826H30.192C31.5654 3.36487 33.0533 2.92689 34.5833 2.76567C34.6249 2.76167 34.6641 2.7449 34.6958 2.71768C34.7274 2.69045 34.7498 2.6541 34.7599 2.61362C34.77 2.57314 34.7674 2.53052 34.7523 2.49162C34.7372 2.45271 34.7104 2.41944 34.6757 2.39636L33.937 1.92319C30.1458 -0.511953 26.1469 -0.644681 22.2345 1.58272L7.02352 10.4693L4.4268 11.9811Z" fill="url(#paint5_radial_14789_69589)"/>
<path d="M98.1815 35.3689C98.9284 36.3831 99.3126 37.6188 99.2726 38.8777C99.3123 39.7668 99.1216 40.6511 98.7192 41.4449C98.3167 42.2388 97.7161 42.9152 96.9755 43.4088C95.4422 44.4712 93.2198 44.9995 90.2909 44.9995H79.2304C79.0887 44.9995 78.9529 44.9432 78.8527 44.8431C78.7525 44.7429 78.6963 44.6071 78.6963 44.4654V23.0966C78.6963 22.9549 78.7525 22.8191 78.8527 22.7189C78.9529 22.6188 79.0887 22.5625 79.2304 22.5625H89.6535C92.3947 22.5625 94.5004 23.087 95.9705 24.136C96.6663 24.6032 97.2324 25.239 97.616 25.9842C97.9996 26.7293 98.1882 27.5594 98.1643 28.3972C98.1832 29.4244 97.9104 30.436 97.3775 31.3145C97.0309 31.8848 96.5787 32.3837 96.0452 32.7846C95.9702 32.8384 95.9104 32.9106 95.8716 32.9943C95.8328 33.078 95.8164 33.1704 95.8239 33.2623C95.8314 33.3543 95.8626 33.4427 95.9145 33.519C95.9664 33.5953 96.0371 33.6569 96.1199 33.6977C96.9294 34.0842 97.6359 34.6568 98.1815 35.3689ZM83.8246 27.0074V31.2283C83.8246 31.37 83.8809 31.5058 83.981 31.606C84.0812 31.7062 84.217 31.7624 84.3587 31.7624H88.9931C90.0102 31.8274 91.0242 31.5939 91.9104 31.0905C92.2337 30.8735 92.4952 30.5764 92.6693 30.2281C92.8435 29.8798 92.9243 29.4924 92.9039 29.1035C92.9257 28.7161 92.8454 28.3297 92.6711 27.983C92.4967 27.6364 92.2344 27.3415 91.9104 27.128C91.0201 26.6365 90.008 26.4094 88.9931 26.4733H84.3989C84.3254 26.4678 84.2516 26.4775 84.1821 26.5018C84.1126 26.5262 84.0489 26.5647 83.9949 26.6148C83.941 26.665 83.898 26.7257 83.8687 26.7933C83.8394 26.8609 83.8244 26.9338 83.8246 27.0074ZM93.013 40.4168C93.3564 40.1935 93.6338 39.8825 93.8166 39.516C93.9993 39.1495 94.0808 38.7407 94.0525 38.3321C94.0525 36.4715 92.6742 35.5412 89.9177 35.5412H84.3989C84.2572 35.5412 84.1214 35.5974 84.0212 35.6976C83.921 35.7978 83.8648 35.9336 83.8648 36.0752V40.5546C83.8648 40.6247 83.8786 40.6942 83.9054 40.759C83.9323 40.8238 83.9716 40.8827 84.0212 40.9322C84.0708 40.9818 84.1297 41.0212 84.1945 41.048C84.2593 41.0749 84.3287 41.0887 84.3989 41.0887H89.9234C90.9957 41.1567 92.0658 40.924 93.013 40.4168Z" fill="#181818"/>
<path d="M104.56 22.5625H108.678C108.82 22.5625 108.957 22.6186 109.058 22.7186C109.159 22.8186 109.216 22.9544 109.218 23.0966V44.4654C109.216 44.6076 109.159 44.7434 109.058 44.8434C108.957 44.9434 108.82 44.9995 108.678 44.9995H104.56C104.418 44.9995 104.282 44.9434 104.181 44.8434C104.08 44.7434 104.022 44.6076 104.021 44.4654V23.0966C104.022 22.9544 104.08 22.8186 104.181 22.7186C104.282 22.6186 104.418 22.5625 104.56 22.5625Z" fill="#181818"/>
<path d="M136.985 34.3927C136.985 41.2151 132.236 45.3614 125.988 45.3614C118.981 45.3614 113.928 40.1929 113.928 33.7897C113.955 31.3383 114.747 28.9567 116.194 26.9771C117.64 24.9976 119.668 23.5189 121.995 22.7475C124.322 21.976 126.832 21.9503 129.174 22.6738C131.517 23.3974 133.575 24.8341 135.061 26.7835C135.103 26.8424 135.131 26.9093 135.145 26.9799C135.159 27.0506 135.159 27.1234 135.143 27.1936C135.127 27.2639 135.097 27.3302 135.054 27.3881C135.012 27.446 134.957 27.4944 134.895 27.5301L131.449 29.5056C131.342 29.569 131.216 29.5917 131.093 29.5695C130.971 29.5474 130.861 29.4819 130.783 29.385C130.14 28.6442 129.34 28.0569 128.44 27.6663C127.541 27.2757 126.565 27.0918 125.586 27.1281C121.824 27.1281 119.022 29.9019 119.022 33.8242C119.022 37.6144 121.698 40.3882 126.033 40.3882C128.824 40.3882 131.202 38.8835 131.776 36.9425C131.792 36.9024 131.798 36.8592 131.793 36.8164C131.789 36.7736 131.774 36.7325 131.75 36.6966C131.727 36.6606 131.695 36.6308 131.657 36.6097C131.62 36.5885 131.578 36.5766 131.535 36.5749H126.309C126.172 36.5749 126.041 36.5205 125.944 36.4236C125.847 36.3267 125.792 36.1952 125.792 36.0581V32.98C125.792 32.8424 125.847 32.7103 125.943 32.6125C126.04 32.5146 126.172 32.4589 126.309 32.4574H136.468C136.536 32.4574 136.604 32.4709 136.667 32.4973C136.73 32.5236 136.788 32.5622 136.836 32.6108C136.884 32.6594 136.922 32.717 136.947 32.7804C136.973 32.8438 136.986 32.9116 136.985 32.98V34.3927Z" fill="#181818"/>
<path d="M143.856 44.85C142.577 44.5063 141.36 43.9637 140.25 43.242C140.146 43.1728 140.071 43.0687 140.037 42.9487C140.003 42.8286 140.014 42.7004 140.066 42.5873L141.381 39.67C141.412 39.6002 141.458 39.538 141.515 39.4876C141.572 39.4372 141.64 39.3997 141.713 39.3779C141.786 39.3561 141.863 39.3504 141.939 39.3611C142.014 39.3719 142.087 39.3989 142.151 39.4403C143.046 40.0094 144.011 40.461 145.022 40.7841C146.3 41.2024 147.635 41.4175 148.979 41.4216C150.109 41.5008 151.24 41.2747 152.252 40.7669C152.566 40.6005 152.83 40.3529 153.016 40.0498C153.202 39.7468 153.303 39.3995 153.309 39.0441C153.312 38.7899 153.258 38.5383 153.149 38.3084C153.041 38.0785 152.881 37.8764 152.683 37.7175C152.211 37.338 151.671 37.0516 151.092 36.8733C150.443 36.6665 149.565 36.4311 148.456 36.1727C147.042 35.8522 145.648 35.4476 144.281 34.9609C143.2 34.5615 142.239 33.8912 141.49 33.0141C140.68 32.0059 140.271 30.7337 140.342 29.4421C140.329 28.1896 140.696 26.9625 141.393 25.9218C142.187 24.7976 143.29 23.9279 144.569 23.418C146.21 22.7584 147.969 22.4436 149.737 22.4934C151.145 22.4895 152.547 22.6612 153.912 23.0045C155.014 23.2675 156.077 23.6769 157.071 24.222C157.186 24.2854 157.274 24.3886 157.318 24.5123C157.362 24.636 157.36 24.7717 157.312 24.8939L156.111 27.8456C156.084 27.9138 156.043 27.9756 155.991 28.0269C155.938 28.0781 155.876 28.1178 155.807 28.1433C155.738 28.1687 155.665 28.1794 155.592 28.1746C155.518 28.1699 155.447 28.1497 155.382 28.1156C153.637 27.1705 151.687 26.6639 149.703 26.6397C148.255 26.6397 147.187 26.8694 146.498 27.3403C146.179 27.5316 145.916 27.8029 145.735 28.1273C145.554 28.4517 145.46 28.8178 145.464 29.1895C145.46 29.5651 145.573 29.9328 145.787 30.2415C146.001 30.5503 146.306 30.7847 146.659 30.9123C147.833 31.4042 149.055 31.7736 150.306 32.0149C151.723 32.3319 153.119 32.7366 154.486 33.2266C155.561 33.6222 156.52 34.2795 157.277 35.139C158.089 36.1331 158.499 37.3952 158.426 38.6765C158.434 39.9239 158.062 41.1441 157.358 42.1739C156.55 43.2987 155.435 44.1678 154.147 44.6777C152.504 45.3304 150.746 45.643 148.979 45.5966C147.248 45.602 145.526 45.3622 143.862 44.8844" fill="#707070"/>
<path d="M211.767 41.5658V44.6554C211.766 44.796 211.709 44.9304 211.609 45.0293C211.509 45.1282 211.374 45.1837 211.233 45.1837H195.01C194.869 45.1837 194.734 45.1282 194.634 45.0293C194.534 44.9304 194.477 44.796 194.476 44.6554V23.4071C194.476 23.2655 194.532 23.1296 194.632 23.0295C194.732 22.9293 194.868 22.873 195.01 22.873H210.819C210.96 22.8746 211.095 22.9315 211.193 23.0315C211.292 23.1315 211.348 23.2665 211.348 23.4071V26.491C211.348 26.6311 211.292 26.7655 211.193 26.8646C211.094 26.9637 210.96 27.0193 210.819 27.0193H200.144C200.074 27.0193 200.005 27.0332 199.94 27.0601C199.876 27.087 199.817 27.1264 199.768 27.1761C199.719 27.2258 199.68 27.2847 199.654 27.3495C199.628 27.4142 199.615 27.4835 199.615 27.5534V31.3379C199.615 31.478 199.671 31.6124 199.77 31.7115C199.869 31.8106 200.004 31.8662 200.144 31.8662H209.447C209.589 31.8662 209.724 31.9225 209.825 32.0226C209.925 32.1228 209.981 32.2587 209.981 32.4003V35.3578C209.98 35.4985 209.923 35.6328 209.823 35.7318C209.723 35.8307 209.588 35.8862 209.447 35.8862H200.144C200.074 35.8862 200.005 35.9 199.94 35.9269C199.876 35.9538 199.817 35.9933 199.768 36.0429C199.719 36.0926 199.68 36.1515 199.654 36.2163C199.628 36.2811 199.615 36.3504 199.615 36.4202V40.5206C199.615 40.6612 199.671 40.7962 199.77 40.8962C199.869 40.9962 200.003 41.0531 200.144 41.0547H211.233C211.374 41.0546 211.509 41.1101 211.609 41.209C211.709 41.308 211.766 41.4423 211.767 41.583" fill="#707070"/>
<path d="M245.037 44.0805C243.24 43.1335 241.739 41.7111 240.695 39.9686C239.661 38.1566 239.116 36.1059 239.116 34.0191C239.116 31.9324 239.661 29.8817 240.695 28.0696C241.739 26.3271 243.24 24.9048 245.037 23.9578C246.948 22.9521 249.08 22.4427 251.239 22.4762C253.038 22.4495 254.823 22.7956 256.482 23.4926C257.842 24.077 259.065 24.9397 260.072 26.0252C260.122 26.0748 260.161 26.1339 260.188 26.1989C260.215 26.264 260.229 26.3337 260.229 26.4042C260.229 26.4747 260.215 26.5444 260.188 26.6095C260.161 26.6745 260.122 26.7336 260.072 26.7832L257.528 29.132C257.429 29.2292 257.296 29.2836 257.157 29.2836C257.019 29.2836 256.886 29.2292 256.787 29.132C256.113 28.4133 255.297 27.8433 254.39 27.4586C253.483 27.0739 252.506 26.883 251.521 26.8981C250.23 26.8758 248.956 27.1884 247.822 27.8054C246.755 28.3965 245.875 29.2762 245.284 30.3438C244.688 31.4853 244.376 32.7542 244.376 34.0421C244.376 35.33 244.688 36.5988 245.284 37.7404C245.873 38.8093 246.753 39.6894 247.822 40.2787C248.955 40.898 250.23 41.2108 251.521 41.1861C252.508 41.2011 253.488 41.0074 254.395 40.6174C255.303 40.2275 256.118 39.6502 256.787 38.9235C256.886 38.8263 257.019 38.7719 257.157 38.7719C257.296 38.7719 257.429 38.8263 257.528 38.9235L260.077 41.278C260.175 41.3778 260.229 41.5118 260.229 41.6513C260.229 41.7908 260.175 41.9248 260.077 42.0245C259.073 43.1291 257.843 44.0046 256.471 44.5916C254.804 45.2889 253.012 45.6368 251.205 45.6138C249.057 45.6424 246.936 45.131 245.037 44.1264" fill="#707070"/>
<path d="M280.902 41.5656V44.6495C280.902 44.7902 280.846 44.9252 280.748 45.0252C280.649 45.1251 280.514 45.1821 280.374 45.1836H264.15C264.009 45.1836 263.873 45.1273 263.773 45.0272C263.672 44.927 263.616 44.7912 263.616 44.6495V23.4013C263.616 23.2596 263.672 23.1238 263.773 23.0236C263.873 22.9235 264.009 22.8672 264.15 22.8672H279.96C280.101 22.8687 280.235 22.9256 280.334 23.0256C280.433 23.1256 280.488 23.2606 280.488 23.4013V26.4851C280.488 26.6253 280.433 26.7596 280.334 26.8587C280.235 26.9578 280.1 27.0135 279.96 27.0135H269.284C269.143 27.0135 269.007 27.0697 268.907 27.1699C268.807 27.2701 268.75 27.4059 268.75 27.5475V31.332C268.752 31.4727 268.809 31.6071 268.909 31.706C269.009 31.8049 269.144 31.8604 269.284 31.8604H278.588C278.728 31.8619 278.863 31.9188 278.962 32.0188C279.06 32.1188 279.116 32.2538 279.116 32.3944V35.352C279.116 35.4921 279.06 35.6265 278.961 35.7256C278.862 35.8246 278.728 35.8803 278.588 35.8803H269.284C269.143 35.8803 269.007 35.9366 268.907 36.0367C268.807 36.1369 268.75 36.2727 268.75 36.4144V40.5147C268.75 40.6564 268.807 40.7922 268.907 40.8924C269.007 40.9925 269.143 41.0488 269.284 41.0488H280.374C280.514 41.0488 280.648 41.1045 280.747 41.2036C280.846 41.3026 280.902 41.437 280.902 41.5771" fill="#707070"/>
<path d="M235.74 23.3895V44.6378C235.74 44.7785 235.685 44.9134 235.586 45.0134C235.487 45.1134 235.353 45.1704 235.212 45.1719H231.766C231.688 45.1723 231.611 45.155 231.54 45.1212C231.469 45.0874 231.407 45.0379 231.359 44.9766L221.326 32.7617C221.256 32.6786 221.162 32.6189 221.056 32.5908C220.951 32.5626 220.84 32.5672 220.737 32.6041C220.635 32.641 220.546 32.7083 220.483 32.797C220.42 32.8858 220.385 32.9917 220.384 33.1006V44.6378C220.384 44.7785 220.329 44.9134 220.23 45.0134C220.131 45.1134 219.997 45.1704 219.856 45.1719H215.836C215.695 45.1704 215.561 45.1134 215.462 45.0134C215.363 44.9134 215.308 44.7785 215.308 44.6378V23.3895C215.308 23.2489 215.363 23.1139 215.462 23.0139C215.561 22.9139 215.695 22.857 215.836 22.8555H219.328C219.406 22.858 219.483 22.8766 219.555 22.9102C219.626 22.9438 219.689 22.9916 219.741 23.0507L229.739 35.2599C229.808 35.3459 229.901 35.4085 230.007 35.4388C230.113 35.4691 230.225 35.4657 230.329 35.4291C230.433 35.3924 230.522 35.3243 230.585 35.2343C230.648 35.1442 230.682 35.0367 230.681 34.9268V23.3895C230.681 23.2489 230.737 23.1139 230.835 23.0139C230.934 22.9139 231.069 22.857 231.209 22.8555H235.229C235.37 22.857 235.504 22.9139 235.603 23.0139C235.702 23.1139 235.758 23.2489 235.758 23.3895" fill="#707070"/>
<path d="M186.301 22.8555H190.407C190.548 22.857 190.682 22.9139 190.781 23.0139C190.88 23.1139 190.935 23.2489 190.935 23.3895V44.6378C190.935 44.7779 190.88 44.9123 190.78 45.0114C190.681 45.1105 190.547 45.1661 190.407 45.1661H186.301C186.161 45.1661 186.026 45.1105 185.927 45.0114C185.828 44.9123 185.772 44.7779 185.772 44.6378V23.3895C185.772 23.2489 185.828 23.1139 185.927 23.0139C186.026 22.9139 186.16 22.857 186.301 22.8555Z" fill="#707070"/>
<path d="M166.609 44.0804C164.814 43.1333 163.314 41.7108 162.274 39.9685C161.239 38.1565 160.694 36.1058 160.694 34.019C160.694 31.9323 161.239 29.8816 162.274 28.0695C163.314 26.3273 164.814 24.9048 166.609 23.9577C168.52 22.952 170.653 22.4426 172.812 22.4761C174.623 22.441 176.423 22.7833 178.095 23.4811C179.454 24.0641 180.675 24.9271 181.678 26.0136C181.727 26.0651 181.764 26.1257 181.789 26.1918C181.813 26.2578 181.825 26.3281 181.822 26.3986C181.819 26.4691 181.803 26.5383 181.773 26.6024C181.744 26.6664 181.702 26.724 181.65 26.7717L179.106 29.1205C179.008 29.2173 178.876 29.2715 178.738 29.2715C178.6 29.2715 178.468 29.2173 178.371 29.1205C177.696 28.4023 176.88 27.8327 175.973 27.448C175.066 27.0634 174.089 26.8721 173.104 26.8865C171.812 26.8648 170.536 27.1773 169.4 27.7939C168.336 28.3868 167.458 29.2661 166.868 30.3322C166.271 31.4738 165.96 32.7426 165.96 34.0305C165.96 35.3185 166.271 36.5873 166.868 37.7289C167.457 38.7962 168.334 39.676 169.4 40.2672C170.536 40.8852 171.812 41.1978 173.104 41.1745C174.092 41.1888 175.071 40.9947 175.979 40.6048C176.886 40.215 177.701 39.6381 178.371 38.9119C178.468 38.8151 178.6 38.7608 178.738 38.7608C178.876 38.7608 179.008 38.8151 179.106 38.9119L181.655 41.2664C181.707 41.3131 181.749 41.3697 181.778 41.4328C181.808 41.4958 181.824 41.5641 181.827 41.6337C181.829 41.7032 181.818 41.7726 181.794 41.8377C181.769 41.9028 181.732 41.9624 181.684 42.013C180.682 43.1201 179.452 43.9961 178.078 44.58C176.413 45.2778 174.622 45.6258 172.817 45.6022C170.653 45.6268 168.517 45.1033 166.609 44.0804Z" fill="#707070"/>
<defs>
<linearGradient id="paint0_linear_14789_69589" x1="7.08615" y1="55.715" x2="21.9567" y2="29.9613" gradientUnits="userSpaceOnUse">
<stop stop-color="#FF1D25"/>
<stop offset="0.45" stop-color="#FF1F25"/>
<stop offset="0.64" stop-color="#FD2625"/>
<stop offset="0.78" stop-color="#FA3325"/>
<stop offset="0.9" stop-color="#F64424"/>
<stop offset="1" stop-color="#F15A24"/>
</linearGradient>
<radialGradient id="paint1_radial_14789_69589" cx="0" cy="0" r="1" gradientUnits="userSpaceOnUse" gradientTransform="translate(25.494 32.3157) scale(11.6795 11.6795)">
<stop offset="0.1" stop-color="#F15A24"/>
<stop offset="1" stop-color="#F15A24" stop-opacity="0"/>
</radialGradient>
<linearGradient id="paint2_linear_14789_69589" x1="-0.0519343" y1="43.5162" x2="28.6158" y2="43.5162" gradientUnits="userSpaceOnUse">
<stop stop-color="#ED1C24"/>
<stop offset="1" stop-color="#FF1D25" stop-opacity="0"/>
</linearGradient>
<linearGradient id="paint3_linear_14789_69589" x1="31.2823" y1="66.4429" x2="57.261" y2="21.4447" gradientUnits="userSpaceOnUse">
<stop stop-color="#0549CF"/>
<stop offset="0.18" stop-color="#0B52D3"/>
<stop offset="0.47" stop-color="#1A6CDD"/>
<stop offset="0.84" stop-color="#3395ED"/>
<stop offset="1" stop-color="#3FA9F5"/>
</linearGradient>
<linearGradient id="paint4_linear_14789_69589" x1="28.0685" y1="-0.00415472" x2="28.0685" y2="33.8051" gradientUnits="userSpaceOnUse">
<stop stop-color="#FFD800"/>
<stop offset="0.05" stop-color="#FFC907"/>
<stop offset="0.15" stop-color="#FFB111"/>
<stop offset="0.25" stop-color="#FFA018"/>
<stop offset="0.36" stop-color="#FF961D"/>
<stop offset="0.5" stop-color="#FF931E"/>
<stop offset="0.65" stop-color="#FE901E"/>
<stop offset="0.77" stop-color="#FC861F"/>
<stop offset="0.88" stop-color="#F87521"/>
<stop offset="0.99" stop-color="#F25D24"/>
<stop offset="1" stop-color="#F15A24"/>
</linearGradient>
<radialGradient id="paint5_radial_14789_69589" cx="0" cy="0" r="1" gradientUnits="userSpaceOnUse" gradientTransform="translate(13238.6 9789.87) scale(963.477 641.044)">
<stop offset="0.1" stop-color="#F15A24"/>
<stop offset="1" stop-color="#F15A24" stop-opacity="0"/>
</radialGradient>
</defs>
</svg>
